<svg xmlns="http://www.w3.org/2000/svg" viewBox="0 0 56 56"><title>quote-up</title><path d="M.8,49.85C.8,48,.74,45.32.67,41.7s-.14-6.28-.14-8c0-3.37.1-6.23.3-8.69a40,40,0,0,1,1.32-7.4A16.92,16.92,0,0,1,5,11.47,13.55,13.55,0,0,1,9.84,7.6a16.65,16.65,0,0,1,7.36-1.45L22.67,17c-3.95,0-6.73.87-8.42,2.57s-2.53,4.5-2.53,8.36h11V49.85Zm32.79,0c0-1.83,0-4.54-.12-8.15s-.13-6.28-.13-8c0-3.37.1-6.23.31-8.69A39.93,39.93,0,0,1,35,17.62a16.92,16.92,0,0,1,2.83-6.16A13.67,13.67,0,0,1,42.66,7.6,16.55,16.55,0,0,1,50,6.15L55.46,17c-3.93,0-6.71.87-8.39,2.57s-2.52,4.5-2.52,8.36H55.46V49.85Z" style="fill:#383838"/></svg>