<svg id="Layer_1" data-name="Layer 1" xmlns="http://www.w3.org/2000/svg" viewBox="0 0 56 56"><defs><style>.cls-1{fill:#fff;}</style></defs><title>quote</title><path class="cls-1" d="M41.9,26.76l6.33-6.24V48.18a6.74,6.74,0,0,1-6.74,6.74H7.82a6.74,6.74,0,0,1-6.74-6.74V14.5A6.74,6.74,0,0,1,7.82,7.77H35.48L29,14.07H7.43V48.54H41.9ZM42,7.23,48.77,14,51,11.78,44.23,5ZM48.1,1.08,45.83,3.36l6.82,6.82L54.92,7.9ZM19.63,29.56,40.08,9.1l6.82,6.82L26.45,36.38l-9.93,3.1Zm3.39.26L24.19,31,41.72,13.77l-1.17-1.19Zm0,0"/></svg>