<svg xmlns="http://www.w3.org/2000/svg" viewBox="0 0 56 56"><title>call</title><path d="M2.84,8.85s2.92-5.11,5.31-5.4,5.45-.29,6.28,1.26S19,15.33,19,15.33a3.56,3.56,0,0,1-.34,3.07,30.31,30.31,0,0,1-3.16,3.7,2.7,2.7,0,0,0,0,3.21,58.61,58.61,0,0,0,7,8.6c3.9,3.9,11.39,6.69,11.39,6.69a2.28,2.28,0,0,0,1.75-.54c.68-.68,4.38-5.31,4.38-5.31a2.6,2.6,0,0,1,3.17-.63c2,.9,10.51,5.16,10.51,5.16a1.85,1.85,0,0,1,1,1.87c0,1.51-.61,5.2-1.86,6.45s-4.9,5.1-10.38,5.1S23.87,48.24,16.91,41.28,3.76,27.25,2.3,20.83,1,11.5,2.84,8.85Z" style="fill:#fff"/></svg>